<svg width="1200" height="420" viewBox="0 0 1200 420" fill="none" xmlns="http://www.w3.org/2000/svg">
  <defs>
    <linearGradient id="pipeBg" x1="0" y1="0" x2="1200" y2="420" gradientUnits="userSpaceOnUse">
      <stop stop-color="#F4FAFF"/>
      <stop offset="1" stop-color="#E9F4FF"/>
    </linearGradient>
    <linearGradient id="pipeAccent" x1="130" y1="90" x2="1040" y2="320" gradientUnits="userSpaceOnUse">
      <stop stop-color="#0B9EC0"/>
      <stop offset="1" stop-color="#0A7C3A"/>
    </linearGradient>
    <marker id="arrow" markerWidth="12" markerHeight="12" refX="10" refY="6" orient="auto">
      <path d="M0,0 L12,6 L0,12 Z" fill="#1D658B"/>
    </marker>
  </defs>

  <rect x="20" y="20" width="1160" height="380" rx="24" fill="url(#pipeBg)" stroke="#C8DEEF" stroke-width="2"/>
  <text x="60" y="72" font-family="Segoe UI, Arial, sans-serif" font-size="34" font-weight="700" fill="#123E5B">NeuroCore Execution Flow</text>

  <g font-family="Segoe UI, Arial, sans-serif">
    <rect x="80" y="132" width="220" height="120" rx="18" fill="#0D2E47"/>
    <text x="190" y="176" text-anchor="middle" font-size="28" font-weight="700" fill="#FFFFFF">NDArray</text>
    <text x="190" y="206" text-anchor="middle" font-size="16" fill="#B9DDF2">Storage, views, ops</text>

    <rect x="352" y="132" width="220" height="120" rx="18" fill="#0F3856"/>
    <text x="462" y="176" text-anchor="middle" font-size="28" font-weight="700" fill="#FFFFFF">Tensor</text>
    <text x="462" y="206" text-anchor="middle" font-size="16" fill="#B9DDF2">Autograd handle</text>

    <rect x="624" y="132" width="220" height="120" rx="18" fill="#134767"/>
    <text x="734" y="176" text-anchor="middle" font-size="28" font-weight="700" fill="#FFFFFF">Function Graph</text>
    <text x="734" y="206" text-anchor="middle" font-size="16" fill="#B9DDF2">Forward + backward</text>

    <rect x="896" y="132" width="220" height="120" rx="18" fill="#1C5D42"/>
    <text x="1006" y="176" text-anchor="middle" font-size="28" font-weight="700" fill="#FFFFFF">Optimizers</text>
    <text x="1006" y="206" text-anchor="middle" font-size="16" fill="#CFF2DF">SGD / RMSProp / Adam</text>
  </g>

  <path d="M300 192 H342" stroke="#1D658B" stroke-width="5" marker-end="url(#arrow)"/>
  <path d="M572 192 H614" stroke="#1D658B" stroke-width="5" marker-end="url(#arrow)"/>
  <path d="M844 192 H886" stroke="#1D658B" stroke-width="5" marker-end="url(#arrow)"/>

  <path d="M1006 260 V322 H190 V260" stroke="url(#pipeAccent)" stroke-width="4"/>
  <path d="M190 322 V260" stroke="#0B9EC0" stroke-width="4" marker-end="url(#arrow)"/>
  <text x="596" y="346" text-anchor="middle" font-family="Segoe UI, Arial, sans-serif" font-size="16" fill="#1B597D">
    Parameter update loop on CUDA kernels
  </text>
</svg>
